{"title":"Nothing Like the Holidays 2008 DVDRip Xvid BigPerm LKRG","uid":6850075,"size":941096165,"categoryP":"video","categoryS":"movies","magnet":"?xt=urn:btih:5878dd53f532af05439ae6c59d5f132ff90d1c56&amp;dn=Nothing+Like+the+Holidays+2008+DVDRip+Xvid+BigPerm+LKRG&amp;tr=udp%3A%2F%2Ftracker.openbittorrent.com%3A80&amp;tr=udp%3A%2F%2Fopen.demonii.com%3A1337&amp;tr=udp%3A%2F%2Ftracker.coppersurfer.tk%3A6969&amp;tr=udp%3A%2F%2Fexodus.desync.com%3A6969","seeders":1,"leechers":1,"uploader":".BONE.","files":2,"time":1322440694,"description":"PLOT\n\nA Puerto Rican family living in the area of Humboldt Park in west Chicago\nface what may be their last Christmas together.\n\nEncoded By .......: BigPerm\nRuntime ..........: 1h 38mn\nFile Size ........: 897 MB\nResolution .......: 640 x 272 &lt;a href=&quot;\nhttp://www.imdb.com/title/tt1151915/&quot; rel=&quot;nofollow&quot; target=&quot;_NEW&quot;&gt;\nhttp://www.imdb.com/title/tt1151915/&lt;/a&gt;\nGenre ............: Comedy,Drama,Romance\nLanguage .........: English\nSubtitles ........: None\nVideo\nID : 0\nFormat : MPEG-4 Visual\nFormat profile : Advanced Simple@L5\nFormat settings, BVOP : Yes\nFormat settings, QPel : No\nFormat settings, GMC : No warppoints\nFormat settings, Matrix : Default (H.263)\nMuxing mode : Packed bitstream\nCodec ID : XVID\nCodec ID/Hint : XviD\nDuration : 1h 38mn\nBit rate : 816 Kbps\nWidth : 640 pixels\nHeight : 272 pixels\nDisplay aspect ratio : 2.35:1\nFrame rate : 23.976 fps\nColor space : YUV\nChroma subsampling : 4:2:0\nBit depth : 8 bits\nScan type : Progressive\nCompression mode : Lossy\nBits/(Pixel*Frame) : 0.196\nStream size : 575 MiB (64%)\nWriting library : XviD 1.2.1 (UTC 2008-12-04)\nAudio\nID : 1\nFormat : AC-3\nFormat/Info : Audio Coding 3\nMode extension : CM (complete main)\nCodec ID : 2000\nDuration : 1h 38mn\nBit rate mode : Constant\nBit rate : 448 Kbps\nChannel(s) : 6 channels\nChannel positions : Front: L C R, Side: L R, LFE\nSampling rate : 48.0 KHz\nBit depth : 16 bits\nCompression mode : Lossy\nStream size : 316 MiB (35%)\nAlignment : Split accross interleaves\nInterleave, duration : 42 ms (1.00 video frame)\nInterleave, preload duration : 500 ms","torrent":{"xt":"urn:btih:5878dd53f532af05439ae6c59d5f132ff90d1c56","amp;dn":"Nothing+Like+the+Holidays+2008+DVDRip+Xvid+BigPerm+LKRG","amp;tr":["udp%3A%2F%2Ftracker.openbittorrent.com%3A80","udp%3A%2F%2Fopen.demonii.com%3A1337","udp%3A%2F%2Ftracker.coppersurfer.tk%3A6969","udp%3A%2F%2Fexodus.desync.com%3A6969"],"infoHash":"5878dd53f532af05439ae6c59d5f132ff90d1c56","infoHashBuffer":{"type":"Buffer","data":[88,120,221,83,245,50,175,5,67,154,230,197,157,95,19,47,249,13,28,86]},"announce":[],"urlList":[]}}